<?xml version="1.0" encoding="UTF-8" standalone="no"?>
<!-- Created with Inkscape (http://www.inkscape.org/) -->

<svg
   xmlns:dc="http://purl.org/dc/elements/1.1/"
   xmlns:cc="http://creativecommons.org/ns#"
   xmlns:rdf="http://www.w3.org/1999/02/22-rdf-syntax-ns#"
   xmlns:svg="http://www.w3.org/2000/svg"
   xmlns="http://www.w3.org/2000/svg"
   xmlns:sodipodi="http://sodipodi.sourceforge.net/DTD/sodipodi-0.dtd"
   xmlns:inkscape="http://www.inkscape.org/namespaces/inkscape"
   width="165mm"
   height="145mm"
   viewBox="0 0 165 145"
   version="1.1"
   id="svg8"
   inkscape:version="0.92.4 (5da689c313, 2019-01-14)"
   sodipodi:docname="laser_radiation.svg">
  <defs
     id="defs2" />
  <sodipodi:namedview
     id="base"
     pagecolor="#ffffff"
     bordercolor="#666666"
     borderopacity="1.0"
     inkscape:pageopacity="0.0"
     inkscape:pageshadow="2"
     inkscape:zoom="0.70000001"
     inkscape:cx="543.13987"
     inkscape:cy="458.83586"
     inkscape:document-units="mm"
     inkscape:current-layer="layer1"
     showgrid="false"
     inkscape:window-width="3000"
     inkscape:window-height="1895"
     inkscape:window-x="-13"
     inkscape:window-y="-13"
     inkscape:window-maximized="1" />
  <metadata
     id="metadata5">
    <rdf:RDF>
      <cc:Work
         rdf:about="">
        <dc:format>image/svg+xml</dc:format>
        <dc:type
           rdf:resource="http://purl.org/dc/dcmitype/StillImage" />
        <dc:title></dc:title>
      </cc:Work>
    </rdf:RDF>
  </metadata>
  <g
     inkscape:label="Layer 1"
     inkscape:groupmode="layer"
     id="layer1"
     transform="translate(0,-152)">
    <path
       style="fill:#000000;stroke-width:0.99999994"
       d="m 2.8087151,296.73652 c -1.99441999,-0.59428 -3.26279999,-2.97934 -2.65630999,-4.99495 0.41122,-1.36665 78.31903589,-137.19684 79.27852589,-138.22 1.92169,-2.04917 4.59506,-2.02606 6.27057,0.0542 0.92889,1.15332 78.746509,136.91728 79.113759,138.02527 0.68686,2.07232 -0.61546,4.56593 -2.68329,5.13782 -1.26419,0.34963 -158.1497549,0.34732 -159.3232549,-0.002 z M 153.15747,287.767 c -0.22318,-0.41472 -5.22761,-9.14457 -11.12097,-19.39965 l -10.71521,-18.64562 -18.27085,-0.0705 c -10.73167,-0.0414 -18.162088,0.0305 -18.007257,0.17436 0.144976,0.13468 2.803944,0.81833 5.908827,1.51921 3.10488,0.70089 5.78942,1.32395 5.96565,1.3846 0.37594,0.12937 -0.191,2.38771 -0.63656,2.53559 -0.14505,0.0482 -2.8595,-0.6996 -6.0321,-1.66164 -5.465618,-1.65738 -5.781624,-1.72193 -6.020987,-1.22979 -0.153245,0.31508 -0.153245,0.61006 0,0.74986 0.138942,0.12674 5.023535,2.73056 10.854657,5.78623 5.83112,3.05567 10.70977,5.65258 10.84145,5.77091 0.2657,0.23873 -1.37322,3.27551 -1.76775,3.27551 -0.1368,0 -4.98951,-2.96641 -10.78382,-6.592 -9.703895,-6.0719 -10.56356,-6.55328 -10.895634,-6.10108 -0.389965,0.53104 -0.249667,0.68287 6.243062,6.75688 l 2.587072,2.42022 -0.96901,0.96488 -0.969025,0.96487 -2.305828,-2.42873 c -6.267279,-6.60135 -6.404366,-6.72711 -6.919459,-6.34761 -0.43854,0.32311 0.100242,1.27648 6.12755,10.84249 3.634604,5.76852 6.608372,10.60253 6.608372,10.74223 0,0.22718 -2.74204,1.93945 -3.105868,1.93945 -0.08109,0 -2.789092,-4.98201 -6.017862,-11.07113 -5.521859,-10.41365 -5.905329,-11.05533 -6.457089,-10.805 -0.58074,0.26347 -0.56899,0.32381 1.17648,6.04102 0.969698,3.17618 1.705143,5.92522 1.634325,6.10897 -0.116929,0.30342 -2.047485,0.83331 -2.375735,0.65209 -0.0757,-0.0418 -0.75729,-2.73692 -1.51458,-5.98914 -1.26592,-5.43654 -1.42682,-5.92018 -1.99648,-6.00073 -0.76443,-0.10811 -0.7572,-0.5671 -0.20654,13.11212 0.22159,5.50457 0.40518,10.47101 0.40798,11.03655 l 0.005,1.02826 h -1.92764 -1.92762 l 0.005,-1.02826 c 0.003,-0.56554 0.18639,-5.53198 0.40797,-11.03655 0.55068,-13.67922 0.55791,-13.22023 -0.20652,-13.11212 -0.56967,0.0805 -0.73058,0.56419 -1.99649,6.00073 -0.7573,3.25222 -1.50081,5.93577 -1.65227,5.96343 -0.60542,0.11057 -2.1171,-0.31251 -2.23805,-0.62638 -0.0708,-0.18375 0.66462,-2.93279 1.63432,-6.10897 1.74548,-5.71721 1.75723,-5.77755 1.17648,-6.04102 -0.55176,-0.25033 -0.93522,0.39135 -6.45709,10.805 -3.22878,6.08912 -5.93681,11.07113 -6.01786,11.07113 -0.363816,0 -3.105876,-1.71227 -3.105876,-1.93945 0,-0.1397 2.973766,-4.97371 6.608366,-10.74223 6.02731,-9.56601 6.5661,-10.51938 6.12755,-10.84249 -0.51508,-0.3795 -0.65218,-0.25374 -6.91944,6.34761 l -2.30584,2.42873 -0.969016,-0.96487 -0.96902,-0.96488 2.587066,-2.42022 c 6.49273,-6.07401 6.63303,-6.22584 6.24308,-6.75688 -0.33209,-0.4522 -1.19175,0.0292 -10.895636,6.10108 -5.79431,3.62559 -10.64703,6.592 -10.78382,6.592 -0.39453,0 -2.03345,-3.03678 -1.76776,-3.27551 0.13169,-0.11833 5.01035,-2.71524 10.84146,-5.77091 5.831106,-3.05567 10.715706,-5.65949 10.854646,-5.78623 0.15324,-0.1398 0.15324,-0.43478 0,-0.74986 -0.23936,-0.49213 -0.55573,-0.42748 -6.026476,1.23145 -3.17563,0.96297 -5.91719,1.69607 -6.09238,1.62913 -0.25437,-0.0972 -0.74836,-1.75075 -0.70438,-2.35779 0.005,-0.0747 2.71209,-0.75485 6.01485,-1.51142 5.514566,-1.26326 6.012196,-1.42573 6.093006,-1.98925 0.0838,-0.58426 -0.002,-0.61342 -1.78995,-0.60956 -1.03287,0.002 -6.339066,0.18506 -11.791536,0.40629 -5.45247,0.22123 -10.31632,0.40449 -10.80856,0.40724 l -0.89497,0.005 v -1.91941 -1.9194 l 1.30804,0.005 c 0.71943,0.003 5.83111,0.18559 11.35932,0.40623 13.434986,0.53622 12.667576,0.54869 12.666296,-0.20565 -0.001,-0.57854 -0.36936,-0.70118 -5.917836,-1.97006 -3.25423,-0.7442 -6.02538,-1.42285 -6.1581,-1.5081 -0.13273,-0.0852 -0.0733,-0.72391 0.13206,-1.41925 l 0.37338,-1.26426 5.99231,1.83335 c 5.895956,1.80387 5.997446,1.82427 6.311786,1.26879 0.37023,-0.65427 1.76596,0.16442 -12.504926,-7.335 -5.18742,-2.72602 -9.42792,-5.03447 -9.42334,-5.1299 0.005,-0.0954 0.41504,-0.87932 0.91213,-1.74197 l 0.90379,-1.56844 10.72256,6.70712 c 9.763476,6.1072 10.754376,6.66449 11.078156,6.23051 0.37799,-0.50665 -0.10072,-1.02291 -6.51412,-7.02512 l -2.303246,-2.15558 0.9791,-0.97493 0.979116,-0.97492 2.5586,2.7214 c 6.01003,6.39244 6.10425,6.47886 6.6391,6.08928 0.45159,-0.32892 -0.0512,-1.21826 -6.24605,-11.0485 l -6.737176,-10.69078 1.56464,-0.88752 c 0.86056,-0.48813 1.667076,-0.85514 1.792286,-0.81559 0.12519,0.0395 2.81095,4.93952 5.96834,10.88881 3.15739,5.94929 5.86945,10.85962 6.02682,10.91185 0.15736,0.0522 0.45642,-0.006 0.66458,-0.1301 0.30608,-0.182 0.0476,-1.30022 -1.35137,-5.84615 -0.95142,-3.0916 -1.73666,-5.82618 -1.74499,-6.07685 -0.0107,-0.32187 0.30728,-0.50999 1.0824,-0.64038 0.60365,-0.10155 1.19226,-0.15945 1.30804,-0.12867 0.11578,0.0308 0.83331,2.72507 1.59453,5.98729 1.26599,5.42552 1.43624,5.93879 1.99649,6.01893 0.75601,0.10816 0.74932,0.54843 0.1994,-13.11212 -0.22158,-5.50457 -0.40518,-10.47101 -0.40797,-11.03655 l -0.005,-1.02826 h 1.92762 1.92764 l -0.005,1.02826 c -0.003,0.56554 -0.18639,5.53198 -0.40798,11.03655 -0.54991,13.66055 -0.55662,13.22028 0.1994,13.11212 0.56024,-0.0801 0.73049,-0.59341 1.99649,-6.01893 0.76121,-3.26222 1.47874,-5.9565 1.59452,-5.98729 0.11578,-0.0308 0.7044,0.0271 1.308039,0.12867 0.775122,0.13039 1.093093,0.31851 1.0824,0.64038 -0.008,0.25067 -0.793575,2.98525 -1.744979,6.07685 -1.39897,4.54593 -1.65745,5.66415 -1.35138,5.84615 0.20816,0.12379 0.50722,0.18233 0.66459,0.1301 0.15736,-0.0522 2.869432,-4.96256 6.026815,-10.91185 3.157384,-5.94929 5.843143,-10.84926 5.96835,-10.88881 0.125198,-0.0395 0.931734,0.32746 1.792284,0.81559 l 1.56464,0.88752 -6.737173,10.69078 c -6.194866,9.83023 -6.697641,10.71957 -6.246054,11.0485 0.534841,0.38957 0.629069,0.30316 6.639091,-6.08928 l 2.558607,-2.7214 0.979109,0.97492 0.97911,0.97492 -2.30325,2.15558 c -6.413393,6.00221 -6.89212,6.51848 -6.514124,7.02513 0.323786,0.43397 1.314683,-0.12332 11.078154,-6.23052 l 10.72256,-6.70711 0.90379,1.56843 c 0.49709,0.86265 0.90755,1.64653 0.91214,1.74197 0.005,0.0954 -4.23593,2.40388 -9.42334,5.12991 -14.270884,7.49941 -12.87516,6.68072 -12.504924,7.33499 0.31434,0.55549 0.415818,0.53508 6.311784,-1.26879 l 5.99231,-1.83334 0.37338,1.26426 c 0.20536,0.69534 0.26478,1.334 0.13207,1.41925 -0.13273,0.0852 -2.90388,0.76389 -6.15811,1.50809 -3.254239,0.74421 -5.917266,1.44566 -5.917845,1.55877 -5.48e-4,0.1131 7.696225,0.20564 17.104015,0.20564 h 17.10507 l -0.39581,-0.61694 C 128.49033,244.78949 118.0433,226.58946 105.4924,204.6843 92.941499,182.77914 82.597081,164.85674 82.504791,164.85674 c -0.12024,0 -53.048316,92.07245 -70.171376,122.0685 l -0.91092,1.59575 h 71.070356 71.070369 z"
       id="path826"
       inkscape:connector-curvature="0" />
  </g>
</svg>
