<?xml version="1.0" encoding="UTF-8" standalone="no"?>
<!-- Svg Vector Icons : http://www.onlinewebfonts.com/icon -->

<svg
   xmlns:dc="http://purl.org/dc/elements/1.1/"
   xmlns:cc="http://creativecommons.org/ns#"
   xmlns:rdf="http://www.w3.org/1999/02/22-rdf-syntax-ns#"
   xmlns:svg="http://www.w3.org/2000/svg"
   xmlns="http://www.w3.org/2000/svg"
   xmlns:sodipodi="http://sodipodi.sourceforge.net/DTD/sodipodi-0.dtd"
   xmlns:inkscape="http://www.inkscape.org/namespaces/inkscape"
   version="1.1"
   x="0px"
   y="0px"
   viewBox="0 0 666.40002 823.284"
   enable-background="new 0 0 1000 1000"
   xml:space="preserve"
   id="svg14"
   sodipodi:docname="new.svg"
   width="666.40002"
   height="823.284"
   inkscape:version="0.92.4 (5da689c313, 2019-01-14)"><defs
   id="defs18" /><sodipodi:namedview
   pagecolor="#ffffff"
   bordercolor="#666666"
   borderopacity="1"
   objecttolerance="10"
   gridtolerance="10"
   guidetolerance="10"
   inkscape:pageopacity="0"
   inkscape:pageshadow="2"
   inkscape:window-width="3000"
   inkscape:window-height="1895"
   id="namedview16"
   showgrid="false"
   inkscape:zoom="0.944"
   inkscape:cx="538.77478"
   inkscape:cy="444.43588"
   inkscape:window-x="-13"
   inkscape:window-y="-13"
   inkscape:window-maximized="1"
   inkscape:current-layer="svg14" />
<metadata
   id="metadata2"> Svg Vector Icons : http://www.onlinewebfonts.com/icon <rdf:RDF><cc:Work
     rdf:about=""><dc:format>image/svg+xml</dc:format><dc:type
       rdf:resource="http://purl.org/dc/dcmitype/StillImage" /><dc:title></dc:title></cc:Work></rdf:RDF></metadata>
<g
   id="g835"
   transform="translate(-303.6,9.9999966)"><path
     d="m 813.1,39.184 111,127.3 h -91.4 c -10.8,0 -19.6,-8.8 -19.6,-19.6 z"
     id="path4"
     inkscape:connector-curvature="0" /><path
     d="m 969.8,166.484 c -0.1,-5 -1.9,-9.9 -5.7,-13.7 L 827,-4.316 c -4.5,-4.5 -10.7,-6.3 -16.5,-5.5 H 362.4 c -32.5,0 -58.8,26.3 -58.8,58.8 v 705.5 c 0,32.5 26.3,58.8 58.8,58.8 h 548.8 c 32.5,0 58.8,-26.3 58.8,-58.8 v -588 z m -61.5,561 c 0,10 -8.1,18.1 -18.1,18.1 H 383.3 c -10,0 -18.1,-8.1 -18.1,-18.1 v -651.7 c 0,-10 8.1,-18.1 18.1,-18.1 h 380.1 v 108.6 c 0,30 24.3,54.3 54.3,54.3 h 90.5 v 506.9 z"
     id="path6"
     inkscape:connector-curvature="0" /><path
     d="m 667.2,218.084 h -61.1 v 153 h -153 v 61.2 h 153 v 153 h 61.2 v -153 h 153 v -61.2 h -153 v -153 z"
     id="path10"
     inkscape:connector-curvature="0" /></g>
</svg>