<?xml version="1.0" encoding="UTF-8" standalone="no"?>
<svg
   xmlns:dc="http://purl.org/dc/elements/1.1/"
   xmlns:cc="http://creativecommons.org/ns#"
   xmlns:rdf="http://www.w3.org/1999/02/22-rdf-syntax-ns#"
   xmlns:svg="http://www.w3.org/2000/svg"
   xmlns="http://www.w3.org/2000/svg"
   xmlns:sodipodi="http://sodipodi.sourceforge.net/DTD/sodipodi-0.dtd"
   xmlns:inkscape="http://www.inkscape.org/namespaces/inkscape"
   height="650"
   viewBox="-65 0 486.43091 487.49999"
   width="650"
   version="1.1"
   id="svg4"
   sodipodi:docname="stop.svg"
   inkscape:version="0.92.4 (5da689c313, 2019-01-14)">
  <metadata
     id="metadata10">
    <rdf:RDF>
      <cc:Work
         rdf:about="">
        <dc:format>image/svg+xml</dc:format>
        <dc:type
           rdf:resource="http://purl.org/dc/dcmitype/StillImage" />
        <dc:title></dc:title>
      </cc:Work>
    </rdf:RDF>
  </metadata>
  <defs
     id="defs8" />
  <sodipodi:namedview
     pagecolor="#ffffff"
     bordercolor="#666666"
     borderopacity="1"
     objecttolerance="10"
     gridtolerance="10"
     guidetolerance="10"
     inkscape:pageopacity="0"
     inkscape:pageshadow="2"
     inkscape:window-width="3000"
     inkscape:window-height="1895"
     id="namedview6"
     showgrid="false"
     inkscape:zoom="0.77631579"
     inkscape:cx="-565.80225"
     inkscape:cy="605.42231"
     inkscape:window-x="-13"
     inkscape:window-y="-13"
     inkscape:window-maximized="1"
     inkscape:current-layer="svg4"
     units="px" />
  <path
     sodipodi:type="star"
     style="opacity:1;fill:#000000;fill-opacity:1;stroke:#150000;stroke-width:12.13847733;stroke-linecap:round;stroke-linejoin:round;stroke-miterlimit:4;stroke-dasharray:none;stroke-opacity:1"
     id="path4519"
     sodipodi:sides="8"
     sodipodi:cx="-1392.9237"
     sodipodi:cy="-550.67798"
     sodipodi:r1="526.77954"
     sodipodi:r2="438.40677"
     sodipodi:arg1="1.1762585"
     sodipodi:arg2="1.5689575"
     inkscape:flatsided="true"
     inkscape:rounded="0"
     inkscape:randomized="0"
     d="m -1190.4394,-64.368637 -403.1789,0.741344 -285.6147,-284.566337 -0.7414,-403.17893 284.5664,-285.61474 403.1789,-0.7414 285.61474,284.56638 0.74134,403.17892 z"
     inkscape:transform-center-x="35.336406"
     inkscape:transform-center-y="-99.332725"
     transform="matrix(0.49427415,0,0,0.4943177,866.72261,515.95194)" />
  <path
     d="m 125.82724,472.49999 h 101.3663 c 28.28659,0 54.46037,-15.93506 68.30472,-41.73841 l 87.6836,-163.37158 -4.94875,-3.93085 c -0.0929,-0.0784 -0.18583,-0.15677 -0.2747,-0.23514 -7.61904,-6.95249 -17.87202,-10.52279 -28.3068,-9.8487 -10.65695,0.78774 -20.49788,5.83945 -27.16757,13.94415 l -25.2931,29.87137 c -1.9391,2.28876 -5.15477,3.15096 -8.0311,2.1516 -2.88037,-0.99938 -4.79927,-3.64085 -4.80331,-6.60761 L 284.2111,87.229005 C 284.199,73.222146 273.44506,61.829317 260.23497,61.829317 c -12.91925,0 -23.47521,10.863749 -23.96403,24.423828 0,20.755555 -0.0121,43.349155 -0.0161,64.853265 -0.008,48.63603 -0.0161,90.6135 0,94.68545 0.008,1.85765 -0.75141,3.64084 -2.10474,4.95374 -1.35736,1.30897 -3.19546,2.04185 -5.11033,2.03401 h -0.0242 c -1.91082,0.0157 -3.74489,-0.70935 -5.10629,-2.0105 -1.35737,-1.30114 -2.12493,-3.07649 -2.13301,-4.9263 -0.0161,-4.09938 -0.008,-46.05335 0,-94.71289 0,-20.9907 0.008,-43.03171 0.0121,-63.379675 -0.0121,-0.1646 -0.0202,-0.31745 -0.0202,-0.48205 0,-0.39975 0.008,-0.78382 0.0202,-1.18357 0,-17.083348 0,-32.861647 0,-45.778987 C 221.79637,26.302689 211.03843,15 197.82024,15 h -0.73523 c -13.21817,0 -24.18617,11.212549 -24.18617,25.227258 V 245.87416 c 0,3.87599 -3.244,7.02303 -7.2393,7.02303 -3.9994,0 -7.2393,-3.14704 -7.2393,-7.02303 V 66.814417 c 0,-14.014699 -10.5318,-25.415349 -23.7499,-25.415349 -13.295,0 -23.8227,11.40065 -23.8227,25.415349 V 245.87416 c 0,3.87599 -3.2439,7.02303 -7.2393,7.02303 -3.9994,0 -7.2393,-3.14704 -7.2393,-7.02303 v -105.5492 c 0,-14.01862 -10.992196,-24.99602 -24.214496,-24.99602 h -0.6908 c -13.1858,0 -23.9438,11.11066 -23.9761,25.08225 -0.1373,57.67738 -0.053,159.36625 0.036,250.39126 0.04,45.10099 35.1704,81.69754 78.303196,81.69754 z m 0,0"
     id="path2"
     style="fill:#000000;fill-opacity:1;stroke:#ffffff;stroke-width:11.25;stroke-miterlimit:4;stroke-dasharray:none;stroke-opacity:1"
     inkscape:connector-curvature="0" />
</svg>
