<?xml version="1.0" encoding="utf-8"?>
<!-- Svg Vector Icons : http://www.onlinewebfonts.com/icon -->
<!DOCTYPE svg PUBLIC "-//W3C//DTD SVG 1.1//EN" "http://www.w3.org/Graphics/SVG/1.1/DTD/svg11.dtd">
<svg version="1.1" xmlns="http://www.w3.org/2000/svg" xmlns:xlink="http://www.w3.org/1999/xlink" x="0px" y="0px" viewBox="0 0 1000 1000" enable-background="new 0 0 1000 1000" xml:space="preserve">
<metadata> Svg Vector Icons : http://www.onlinewebfonts.com/icon </metadata>
<g><g transform="translate(0.000000,512.000000) scale(0.100000,-0.100000)"><path d="M4119.4,5000.6c-178-23-442.2-103.4-627.9-189.5c-543.7-254.6-987.8-750.4-1190.7-1330.5c-137.8-392.4-137.8-407.8-147.4-1539.2l-9.6-1024.2l-80.4-90c-44-49.8-109.1-147.4-143.6-216.3c-120.6-247-118.7-183.8-112.9-2467.6l5.7-2071.4l49.8-126.3c107.2-277.6,273.8-472.9,507.3-595.4c258.4-135.9,134-130.2,2613.1-130.2c1500.9,0,2268.5,5.7,2345.1,21c333.1,59.4,650.9,321.6,783,645.1c86.1,210.6,88.1,296.7,82.3,2425.5l-5.7,2010.1l-42.1,124.4c-118.7,348.4-365.6,595.4-714.1,714.1l-124.4,42.1l-2004.4,5.7l-2006.3,5.8v798.3c0,907.4,7.7,962.9,137.8,1227.1c141.7,287.2,407.8,515,714.1,608.8c103.4,30.6,191.4,34.5,851.9,34.5c729.4,0,739,0,878.7-45.9c285.2-93.8,541.8-315.9,679.6-591.5c95.7-189.5,126.3-312.1,143.6-572.4c13.4-195.3,24.9-250.8,67-338.8c97.6-201,273.8-306.3,509.2-308.2c113,0,162.7,9.6,237.4,45.9c122.5,61.3,216.3,157,277.6,287.2c44,97.6,47.9,128.3,45.9,319.7c-17.2,1167.8-836.6,2149.8-1933.5,2314.5c-143.6,21.1-361.8,28.7-924.6,26.8C4575.1,5017.8,4188.4,5010.1,4119.4,5000.6z M5329.3-466.9c536-250.8,622.2-997.4,157-1347.7l-84.2-63.2v-848.1v-848.1h-402h-402v850v848.1l-76.6,51.7c-93.8,61.3-222.1,227.8-268,350.3c-132.1,352.3,9.6,775.3,321.6,957.2c162.7,95.7,266.1,122.5,453.7,114.9C5174.3-405.6,5220.2-417.1,5329.3-466.9z"/></g></g>
</svg>